<svg t="1729801280309" class="icon" viewBox="0 0 1024 1024" version="1.1" xmlns="http://www.w3.org/2000/svg" p-id="27926" width="128" height="128"><path d="M555.290631 649.117274 423.395983 864.10904 239.847729 864.10904c-26.467188 0-47.167833-21.849028-47.167833-48.316216L192.679896 207.795646c0-26.467188 20.700645-47.699435 47.167833-47.699435l278.672087 0L407.822522 383.002477l132.766967 90.228583L442.188815 594.634275 555.290631 649.117274zM650.39086 164.263844c0 0.005131-0.004105-0.001026-0.005131 0.001026 0.001026 0.002053 0.004105 0.004105 0.005131 0.006158C650.39086 164.271028 650.39086 164.265897 650.39086 164.263844zM832.038485 350.133494c0 0.00821 0 0.017446 0 0.02463L832.038485 815.792824c0 26.467188-21.724851 48.316216-48.192038 48.316216L460.939571 864.10904l140.156023-228.448058-108.569862-52.318621 94.840585-116.98928-138.469882-94.12631L554.245901 160.096212l84.633426 0c0.015394 0 0.029761 0 0.047208 0l0.002053 0c4.262049 0 9.400521 1.440866 11.457142 4.168659-0.010263 0.015394-0.044129-0.031814-0.004105 0.00821l176.765717 174.235991c0.136492 0.13444 0.472079 0.155991 0.472079 0.155991l0.044129 0c0 0-0.037972 0.257591-0.035919 0.260669C830.327713 341.784887 832.038485 345.892997 832.038485 350.133494zM814.367352 349.953899 639.102024 175.010816 639.102024 333.739026c0 8.822738 6.346378 16.214873 15.16809 16.214873L814.367352 349.953899z" p-id="27927" fill="#666666"></path></svg>
