<?xml version="1.0" standalone="no"?><!DOCTYPE svg PUBLIC "-//W3C//DTD SVG 1.1//EN" "http://www.w3.org/Graphics/SVG/1.1/DTD/svg11.dtd"><svg t="1729701950431" class="icon" viewBox="0 0 1024 1024" version="1.1" xmlns="http://www.w3.org/2000/svg" p-id="2469" xmlns:xlink="http://www.w3.org/1999/xlink" width="48" height="48"><path d="M640 96a32 32 0 0 1 32-32h42.666667a32 32 0 0 1 32 32v137.418667c0 15.242667 0.821333 22.997333 1.621333 27.146666 0.586667 3.050667 1.088 4.042667 2.208 6.133334 1.642667 3.061333 3.733333 5.152 6.805333 6.794666 2.101333 1.12 3.093333 1.632 6.154667 2.218667 4.16 0.8 11.925333 1.621333 27.178667 1.621333H928a32 32 0 0 1 32 32v42.666667a32 32 0 0 1-32 32H790.634667c-38.154667 0-60.352-4-83.616-16.426667a122.272 122.272 0 0 1-50.570667-50.56C644 293.76 640 271.573333 640 233.429333V96zM286.784 73.376A32 32 0 0 1 309.418667 64h42.666666a32 32 0 0 1 32 32v137.397333c0 38.133333-4 60.330667-16.416 83.573334a122.218667 122.218667 0 0 1-50.506666 50.581333C293.909333 380 271.722667 384 233.610667 384H96.085333a32 32 0 0 1-32-32v-42.666667a32 32 0 0 1 32-32H233.6c15.221333 0 22.965333-0.810667 27.093333-1.610666 3.04-0.586667 4.021333-1.088 6.101334-2.208 3.050667-1.632 5.141333-3.712 6.784-6.784 1.109333-2.101333 1.621333-3.093333 2.208-6.154667 0.8-4.16 1.621333-11.925333 1.621333-27.178667V96.010667a32 32 0 0 1 9.376-22.634667z m-213.408 576A32 32 0 0 1 96 640h126.890667c38.101333 0 60.298667 4 83.541333 16.458667a122.218667 122.218667 0 0 1 50.496 50.581333c12.416 23.253333 16.405333 45.44 16.405333 83.584V928a32 32 0 0 1-32 32h-42.666666a32 32 0 0 1-32-32V790.624c0-15.253333-0.810667-23.018667-1.621334-27.189333a17.397333 17.397333 0 0 0-2.208-6.165334 15.616 15.616 0 0 0-6.773333-6.784 17.098667 17.098667 0 0 0-6.08-2.197333c-4.149333-0.8-11.872-1.621333-27.093333-1.621333H96a32 32 0 0 1-32-32v-42.666667a32 32 0 0 1 9.376-22.624z m217.952 35.285333l-5.045333 9.408z m415.637333-28.224C730.218667 644 752.426667 640 790.549333 640H928a32 32 0 0 1 32 32v42.666667a32 32 0 0 1-32 32H790.549333c-15.242667 0-22.986667 0.821333-27.136 1.621333a17.216 17.216 0 0 0-6.122666 2.208c-3.061333 1.632-5.152 3.722667-6.794667 6.794667-1.12 2.090667-1.621333 3.093333-2.208 6.133333-0.8 4.16-1.621333 11.914667-1.621333 27.168V928a32 32 0 0 1-32 32h-42.666667a32 32 0 0 1-32-32V790.592c0-38.144 4-60.341333 16.426667-83.594667a122.24 122.24 0 0 1 50.538666-50.56z" fill="#E12617" p-id="2470"></path></svg>
