<?xml version="1.0" standalone="no"?><!DOCTYPE svg PUBLIC "-//W3C//DTD SVG 1.1//EN" "http://www.w3.org/Graphics/SVG/1.1/DTD/svg11.dtd"><svg t="1729703591913" class="icon" viewBox="0 0 1026 1024" version="1.1" xmlns="http://www.w3.org/2000/svg" p-id="22307" xmlns:xlink="http://www.w3.org/1999/xlink" width="48.09375" height="48"><path d="M9.204408 667.826087l82.68323 146.285714c19.080745 25.440994 50.881988 38.161491 82.68323 25.440994l69.962733-25.440994c25.440994 19.080745 50.881988 31.801242 82.68323 44.521739l12.720497 69.962733c0 31.801242 25.440994 57.242236 57.242236 57.242236h82.68323V699.627329c-114.484472 0-203.52795-95.403727-203.527951-203.52795 0-114.484472 95.403727-203.52795 203.527951-203.52795 114.484472 0 203.52795 95.403727 203.52795 203.52795v31.801242h190.807453V445.217391l57.242236-44.521739c25.440994-19.080745 38.161491-50.881988 19.080746-82.68323l-82.68323-146.285714c-19.080745-25.440994-50.881988-38.161491-82.68323-25.440994l-69.962733 25.440994c-25.440994-19.080745-50.881988-31.801242-82.68323-44.521739L619.788259 57.242236c0-31.801242-25.440994-57.242236-57.242236-57.242236H390.819315c-31.801242 0-57.242236 25.440994-57.242236 57.242236L320.856582 127.204969c-31.801242 12.720497-57.242236 25.440994-82.683229 44.521739l-63.602485-25.440994c-31.801242-12.720497-63.602484-6.360248-82.68323 25.440994L9.204408 318.012422c-19.080745 25.440994-6.360248 63.602484 19.080746 82.68323l57.242236 44.521739c-6.360248 31.801242-6.360248 63.602484 0 95.403727l-57.242236 44.521739c-25.440994 19.080745-31.801242 57.242236-19.080746 82.68323m992.198758-69.962733H568.906272c-12.720497 0-19.080745 12.720497-19.080746 25.440994v57.242236c0 12.720497 6.360248 25.440994 19.080746 25.440994h432.496894c12.720497 0 19.080745-12.720497 19.080746-25.440994v-57.242236c0-12.720497-6.360248-25.440994-19.080746-25.440994z m19.080746 178.086957c0-12.720497-6.360248-25.440994-19.080746-25.440994-50.881988 6.360248-89.043478 12.720497-108.124223 12.720497-82.68323 0-146.285714-25.440994-190.807454-25.440994-31.801242 0-69.962733 6.360248-127.204969 12.720497-12.720497 0-19.080745 12.720497-19.080745 25.440994v57.242236c0 12.720497 6.360248 25.440994 19.080745 25.440993 57.242236-12.720497 101.763975-19.080745 127.204969-19.080745 44.521739 0 108.124224 25.440994 190.807454 25.440994 19.080745 0 57.242236 0 108.124223-6.360249 12.720497 0 19.080745-12.720497 19.080746-25.440993v-57.242236z m-19.080746 127.204969c-50.881988 6.360248-89.043478 12.720497-108.124223 12.720496-95.403727 0-159.006211-19.080745-190.807454-19.080745-50.881988 0-89.043478 6.360248-127.204969 12.720497-12.720497 0-19.080745 12.720497-19.080745 25.440994v57.242236c0 12.720497 6.360248 25.440994 19.080745 25.440994 38.161491-12.720497 76.322981-19.080745 127.204969-19.080746 31.801242 0 101.763975 19.080745 190.807454 25.440994 19.080745 0 57.242236 0 108.124223-6.360248 12.720497 0 19.080745-12.720497 19.080746-25.440994v-57.242236c0-19.080745-6.360248-31.801242-19.080746-31.801242z" p-id="22308" fill="#E12617"></path></svg>