<svg t="1729793759430" class="icon" viewBox="0 0 1024 1024" version="1.1" xmlns="http://www.w3.org/2000/svg" p-id="9884" width="48" height="48"><path d="M883.2 613.2h-135v-67.6h135v67.6z m-228-224.6l95.4-95.4 47.8 47.8-95.4 95.4-47.8-47.8z m-95.6 231.8c-4.2 5.8-9 10.6-14.8 14.8-1.6 1.2-3.4 2.2-5.2 3.2-1.8 1-3.6 2-5.6 2.8-1.8 0.8-3.8 1.6-5.8 2.2-2 0.6-4 1.2-6 1.6-2 0.4-4 0.8-6 1-2 0.2-4.2 0.4-6.2 0.4s-4.2 0-6.2-0.2-4.2-0.4-6.2-0.8-4-0.8-6-1.4c-2-0.6-4-1.2-5.8-2-2-0.8-3.8-1.6-5.6-2.4l-5.4-3c-1.8-1-3.4-2.2-5-3.6-1.6-1.2-3.2-2.6-4.8-4-1.6-1.4-3-3-4.2-4.4-1.4-1.6-2.6-3.2-3.8-4.8-1.2-1.6-2.4-3.4-3.4-5.2-1-1.8-2-3.6-2.8-5.6-0.8-1.8-1.6-3.8-2.2-5.8l-1.8-6-1.2-6c-0.2-2-0.4-4.2-0.6-6.2v-6.2c0.2-2 0.4-4.2 0.6-6.2l1.2-6 1.8-6c0.8-2 1.6-3.8 2.4-5.6 1-1.8 1.8-3.6 3-5.4 1-1.8 2.2-3.4 3.4-5.2 1.2-1.6 2.6-3.2 4-4.8 1.4-1.6 2.8-3 4.4-4.4 1.6-1.4 3.2-2.6 4.8-3.8l176-87.4-87 176.4z m-238.6-184l-95.4-95.4 47.8-47.8 95.4 95.4-47.8 47.8z m-45.2 176.8H140.8v-67.6h135v67.6z m202.4-405h67.6v135h-67.6v-135zM512 73.2C232.4 73.2 5.8 302.2 5.8 584.8c0 15.4 0.6 30.8 2 46.2 1.4 15.4 3.4 30.6 6.2 45.8 2.8 15.2 6.2 30.2 10.2 45.2s8.8 29.6 14.2 44c5.4 14.4 11.4 28.6 18.2 42.6 6.8 14 14 27.4 22 40.8 8 13.2 16.4 26.2 25.6 38.6 9 12.4 18.8 24.6 29 36.2 2.4 2.8 4.8 5.4 7.2 8 20 18.6 26 18.6 41.8 18.6 15.8 0 26.2 0 42-18.8 68.6-81.2 174-116.2 288-116.2s219.6 35.2 288 116.2c15.8 18.8 26 18.8 42 18.8s23.8 0 41.8-18.6c2.6-2.6 4.8-5.2 7.2-8 10.2-11.6 19.8-23.6 29-36.2 9-12.4 17.6-25.4 25.6-38.6 8-13.2 15.2-26.8 22-40.8 6.8-14 12.8-28 18.2-42.6 5.4-14.4 10.2-29.2 14.2-44s7.6-30 10.2-45.2c2.8-15.2 4.8-30.4 6.2-45.8 1.4-15.4 2-30.8 2-46.2C1018.2 302.2 791.6 73.2 512 73.2z" p-id="9885" fill="#ffffff"></path></svg>
